<mxfile host="65bd71144e">
    <diagram id="PGEzI8lc9whqx9tdBdwp" name="Page-1">
        <mxGraphModel dx="1165" dy="471" grid="1" gridSize="10" guides="1" tooltips="1" connect="1" arrows="1" fold="1" page="1" pageScale="1" pageWidth="413" pageHeight="291" background="none" math="0" shadow="0">
            <root>
                <mxCell id="0"/>
                <mxCell id="1" parent="0"/>
                <mxCell id="10" value="" style="rounded=0;whiteSpace=wrap;html=1;fontSize=40;strokeColor=none;glass=0;shadow=0;" parent="1" vertex="1">
                    <mxGeometry x="67" y="26" width="280" height="240" as="geometry"/>
                </mxCell>
                <mxCell id="2" value="&lt;p&gt;&lt;font style=&quot;font-size: 40px;&quot;&gt;C&lt;/font&gt;&lt;/p&gt;" style="rounded=1;whiteSpace=wrap;html=1;fillColor=#6d8764;fontColor=#ffffff;strokeColor=#3A5431;" parent="1" vertex="1">
                    <mxGeometry x="97" y="46" width="60" height="60" as="geometry"/>
                </mxCell>
                <mxCell id="3" value="&lt;p&gt;&lt;font style=&quot;font-size: 40px;&quot;&gt;A&lt;/font&gt;&lt;/p&gt;" style="rounded=1;whiteSpace=wrap;html=1;fillColor=#6d8764;fontColor=#ffffff;strokeColor=#3A5431;" parent="1" vertex="1">
                    <mxGeometry x="177" y="46" width="60" height="60" as="geometry"/>
                </mxCell>
                <mxCell id="4" value="&lt;p&gt;&lt;font style=&quot;font-size: 40px;&quot;&gt;T&lt;/font&gt;&lt;/p&gt;" style="rounded=1;whiteSpace=wrap;html=1;fillColor=#6d8764;fontColor=#ffffff;strokeColor=#3A5431;" parent="1" vertex="1">
                    <mxGeometry x="257" y="46" width="60" height="60" as="geometry"/>
                </mxCell>
                <mxCell id="5" value="&lt;p&gt;&lt;font style=&quot;font-size: 40px;&quot;&gt;C A T&lt;/font&gt;&lt;/p&gt;" style="rounded=1;whiteSpace=wrap;html=1;fillColor=#76608a;fontColor=#ffffff;strokeColor=#432D57;" parent="1" vertex="1">
                    <mxGeometry x="147" y="186" width="120" height="60" as="geometry"/>
                </mxCell>
                <mxCell id="6" value="" style="endArrow=classic;html=1;exitX=0.5;exitY=1;exitDx=0;exitDy=0;entryX=0.25;entryY=0;entryDx=0;entryDy=0;" parent="1" source="2" target="5" edge="1">
                    <mxGeometry width="50" height="50" relative="1" as="geometry">
                        <mxPoint x="227" y="126" as="sourcePoint"/>
                        <mxPoint x="277" y="76" as="targetPoint"/>
                    </mxGeometry>
                </mxCell>
                <mxCell id="7" value="" style="endArrow=classic;html=1;exitX=0.5;exitY=1;exitDx=0;exitDy=0;" parent="1" source="3" edge="1">
                    <mxGeometry width="50" height="50" relative="1" as="geometry">
                        <mxPoint x="137" y="116" as="sourcePoint"/>
                        <mxPoint x="207" y="186" as="targetPoint"/>
                    </mxGeometry>
                </mxCell>
                <mxCell id="8" value="" style="endArrow=classic;html=1;exitX=0.5;exitY=1;exitDx=0;exitDy=0;entryX=0.75;entryY=0;entryDx=0;entryDy=0;" parent="1" source="4" target="5" edge="1">
                    <mxGeometry width="50" height="50" relative="1" as="geometry">
                        <mxPoint x="217" y="116" as="sourcePoint"/>
                        <mxPoint x="217" y="196" as="targetPoint"/>
                    </mxGeometry>
                </mxCell>
            </root>
        </mxGraphModel>
    </diagram>
</mxfile>